<svg width="244" height="104" viewBox="0 0 244 104" fill="none" xmlns="http://www.w3.org/2000/svg">
<path d="M89.1705 50H99.0114V34.9091H107.284C117.989 34.9091 124.216 28.5227 124.216 19.2273C124.216 9.97727 118.102 3.45454 107.534 3.45454H89.1705V50ZM99.0114 27.0227V11.5H105.648C111.33 11.5 114.08 14.5909 114.08 19.2273C114.08 23.8409 111.33 27.0227 105.693 27.0227H99.0114ZM130.426 50H140.108V15.0909H130.426V50ZM135.29 10.5909C138.176 10.5909 140.54 8.38636 140.54 5.68182C140.54 3 138.176 0.795452 135.29 0.795452C132.426 0.795452 130.062 3 130.062 5.68182C130.062 8.38636 132.426 10.5909 135.29 10.5909ZM166.432 15.0909H159.864V6.72727H150.182V15.0909H145.409V22.3636H150.182V40.5455C150.136 47.3864 154.795 50.7727 161.818 50.4773C164.318 50.3864 166.091 49.8864 167.068 49.5682L165.545 42.3636C165.068 42.4545 164.045 42.6818 163.136 42.6818C161.205 42.6818 159.864 41.9545 159.864 39.2727V22.3636H166.432V15.0909ZM188.136 50.6818C197.432 50.6818 203.273 45.2273 203.727 37.2045H194.591C194.023 40.9318 191.568 43.0227 188.25 43.0227C183.727 43.0227 180.795 39.2273 180.795 32.5455C180.795 25.9545 183.75 22.1818 188.25 22.1818C191.795 22.1818 194.068 24.5227 194.591 28H203.727C203.318 19.9318 197.205 14.6364 188.091 14.6364C177.5 14.6364 170.955 21.9773 170.955 32.6818C170.955 43.2955 177.386 50.6818 188.136 50.6818ZM219.608 29.8182C219.631 25.3182 222.381 22.6818 226.335 22.6818C230.267 22.6818 232.585 25.2045 232.562 29.5V50H242.244V27.7727C242.267 19.5909 237.449 14.6364 230.176 14.6364C224.881 14.6364 221.335 17.1364 219.744 21.25H219.335V3.45454H209.926V50H219.608V29.8182ZM0.107955 103H9.94886V87.9091H18.2216C28.9261 87.9091 35.1534 81.5227 35.1534 72.2273C35.1534 62.9773 29.0398 56.4545 18.4716 56.4545H0.107955V103ZM9.94886 80.0227V64.5H16.5852C22.267 64.5 25.017 67.5909 25.017 72.2273C25.017 76.8409 22.267 80.0227 16.6307 80.0227H9.94886ZM56.7102 103.682C65.3466 103.682 71.1648 99.4773 72.5284 93L63.5739 92.4091C62.5966 95.0682 60.0966 96.4545 56.8693 96.4545C52.0284 96.4545 48.9602 93.25 48.9602 88.0455V88.0227H72.733V85.3636C72.733 73.5 65.5511 67.6364 56.3239 67.6364C46.0511 67.6364 39.392 74.9318 39.392 85.7045C39.392 96.7727 45.9602 103.682 56.7102 103.682ZM48.9602 82.0227C49.1648 78.0455 52.1875 74.8636 56.483 74.8636C60.6875 74.8636 63.5966 77.8636 63.6193 82.0227H48.9602ZM79.0511 103H88.733V83.25C88.733 78.9545 91.8693 76 96.142 76C97.483 76 99.3239 76.2273 100.233 76.5227V67.9318C99.3693 67.7273 98.1648 67.5909 97.1875 67.5909C93.2784 67.5909 90.0739 69.8636 88.8011 74.1818H88.4375V68.0909H79.0511V103ZM125.761 68.0909H118.83V65.75C118.83 63.3864 119.784 62 122.625 62C123.784 62 124.966 62.25 125.739 62.5L127.443 55.2273C126.239 54.8636 123.58 54.2727 120.602 54.2727C114.034 54.2727 109.148 57.9773 109.148 65.5682V68.0909H104.216V75.3636H109.148V103H118.83V75.3636H125.761V68.0909ZM146.335 103.682C154.972 103.682 160.79 99.4773 162.153 93L153.199 92.4091C152.222 95.0682 149.722 96.4545 146.494 96.4545C141.653 96.4545 138.585 93.25 138.585 88.0455V88.0227H162.358V85.3636C162.358 73.5 155.176 67.6364 145.949 67.6364C135.676 67.6364 129.017 74.9318 129.017 85.7045C129.017 96.7727 135.585 103.682 146.335 103.682ZM138.585 82.0227C138.79 78.0455 141.812 74.8636 146.108 74.8636C150.312 74.8636 153.222 77.8636 153.244 82.0227H138.585ZM168.676 103H178.358V68.0909H168.676V103ZM173.54 63.5909C176.426 63.5909 178.79 61.3864 178.79 58.6818C178.79 56 176.426 53.7955 173.54 53.7955C170.676 53.7955 168.312 56 168.312 58.6818C168.312 61.3864 170.676 63.5909 173.54 63.5909ZM204.682 68.0909H198.114V59.7273H188.432V68.0909H183.659V75.3636H188.432V93.5455C188.386 100.386 193.045 103.773 200.068 103.477C202.568 103.386 204.341 102.886 205.318 102.568L203.795 95.3636C203.318 95.4545 202.295 95.6818 201.386 95.6818C199.455 95.6818 198.114 94.9545 198.114 92.2727V75.3636H204.682V68.0909ZM226.386 103.682C236.977 103.682 243.568 96.4318 243.568 85.6818C243.568 74.8636 236.977 67.6364 226.386 67.6364C215.795 67.6364 209.205 74.8636 209.205 85.6818C209.205 96.4318 215.795 103.682 226.386 103.682ZM226.432 96.1818C221.545 96.1818 219.045 91.7045 219.045 85.6136C219.045 79.5227 221.545 75.0227 226.432 75.0227C231.227 75.0227 233.727 79.5227 233.727 85.6136C233.727 91.7045 231.227 96.1818 226.432 96.1818Z" fill="white"/>
</svg>
